<svg xmlns="http://www.w3.org/2000/svg" xmlns:xlink="http://www.w3.org/1999/xlink" version="1.1" width="1000" height="1000" viewBox="0 0 1000 1000" xml:space="preserve">
<desc>Created with Fabric.js 3.5.0</desc>
<defs>
</defs>
<rect x="0" y="0" width="100%" height="100%" fill="#ffffff"/>
<g transform="matrix(76.8151 0 0 76.8151 479.0418 483.5328)" id="85532">
<g style="" vector-effect="non-scaling-stroke">
		<g transform="matrix(1 0 0 1 0.229 -0.2275)">
<path style="stroke: none; stroke-width: 1; stroke-dasharray: none; stroke-linecap: butt; stroke-dashoffset: 0; stroke-linejoin: miter; stroke-miterlimit: 4; is-custom-font: none; font-file-url: none; fill: rgb(139,0,157); fill-rule: nonzero; opacity: 1;" transform=" translate(-8.229, -7.7725)" d="M 6.375 7.125 V 4.658 h 1.78 c 0.973 0 1.542 0.457 1.542 1.237 c 0 0.802 -0.604 1.23 -1.764 1.23 H 6.375 z m 0 3.762 h 1.898 c 1.184 0 1.81 -0.48 1.81 -1.377 c 0 -0.885 -0.65 -1.348 -1.886 -1.348 H 6.375 v 2.725 z" stroke-linecap="round"/>
</g>
		<g transform="matrix(1 0 0 1 0.002 0)">
<path style="stroke: none; stroke-width: 1; stroke-dasharray: none; stroke-linecap: butt; stroke-dashoffset: 0; stroke-linejoin: miter; stroke-miterlimit: 4; is-custom-font: none; font-file-url: none; fill: rgb(139,0,157); fill-rule: nonzero; opacity: 1;" transform=" translate(-8.002, -8)" d="M 4.002 0 a 4 4 0 0 0 -4 4 v 8 a 4 4 0 0 0 4 4 h 8 a 4 4 0 0 0 4 -4 V 4 a 4 4 0 0 0 -4 -4 h -8 z m 1.06 12 V 3.545 h 3.399 c 1.587 0 2.543 0.809 2.543 2.11 c 0 0.884 -0.65 1.675 -1.483 1.816 v 0.1 c 1.143 0.117 1.904 0.931 1.904 2.033 c 0 1.488 -1.084 2.396 -2.888 2.396 H 5.062 z" stroke-linecap="round"/>
</g>
</g>
</g>
</svg>